# xmcd
#
# Track frame offsets: 
#        150
#        18807
#        33380
#        38750
#        56605
#        77097
#        91805
#        107887
#        123140
#        128757
#        145670
#
# Disc length: 2155 seconds
#
# Revision: 2
# Processed by: cddbd v1.5.2PL0 Copyright (c) Steve Scherf et al.
# Submitted via: ExactAudioCopy v1.0b1
#
DISCID=8008690b
DTITLE=UFO - Obsession
DYEAR=1978
DGENRE=Hard Rock
TTITLE0=Only You Can Rock Me
TTITLE1=Pack It Up (And Go)
TTITLE2=Arbory Hill
TTITLE3=Aint't No Baby
TTITLE4=Lookin' Out For No. 1
TTITLE5=Hot 'N' Ready
TTITLE6=Cherry
TTITLE7=You Don't Fool Me
TTITLE8=Lookin' Out For No. 1 (Reprise)
TTITLE9=One More For The Rodeo
TTITLE10=Born To Lose
EXTD=YEAR: 1999
EXTT0=
EXTT1=
EXTT2=
EXTT3=
EXTT4=
EXTT5=
EXTT6=
EXTT7=
EXTT8=
EXTT9=
EXTT10=
PLAYORDER=
